<svg width="14" height="14" viewBox="0 0 14 14" fill="none" xmlns="http://www.w3.org/2000/svg">
<path fill-rule="evenodd" clip-rule="evenodd" d="M0.0649687 4.12567C0.174416 1.73701 1.73559 0.174478 4.12319 0.0650078C6.03492 -0.0216693 7.96508 -0.0216693 9.87681 0.0650078C12.2639 0.173519 13.8257 1.73778 13.935 4.12567C14.0217 6.03854 14.0217 7.96986 13.935 9.88274C13.8256 12.2713 12.2645 13.8339 9.87681 13.9434C9.26472 13.9712 8.65075 13.99 8.03609 14V9.18883H9.65764L9.96636 7.17595H8.03609V5.86991C8.03609 5.31898 8.30586 4.7826 9.16984 4.7826H10.0472V3.06875C10.0472 3.06875 9.25065 2.93262 8.48959 2.93262C6.90002 2.93262 5.86162 3.89659 5.86162 5.64128V7.17537H4.09473V9.18825H5.86162V13.9983C5.28114 13.9879 4.70132 13.9696 4.12319 13.9434C1.73609 13.8338 0.174488 12.2717 0.0649687 9.88274C-0.0216562 7.96986 -0.0216562 6.03854 0.0649687 4.12567Z" fill="#222222"/>
</svg>
