<svg width="14" height="14" viewBox="0 0 14 14" fill="none" xmlns="http://www.w3.org/2000/svg">
<path fill-rule="evenodd" clip-rule="evenodd" d="M4.12319 0.0649687C1.73559 0.174374 0.174416 1.73596 0.0649687 4.12319C-0.0216562 6.03492 -0.0216562 7.96508 0.0649687 9.87681C0.174488 12.2643 1.73609 13.8255 4.12319 13.935C6.03492 14.0217 7.96508 14.0217 9.87681 13.935C12.2645 13.8256 13.8256 12.2639 13.935 9.87681C14.0217 7.96508 14.0217 6.03492 13.935 4.12319C13.8257 1.73674 12.2639 0.173415 9.87681 0.0649687C7.96508 -0.0216562 6.03492 -0.0216562 4.12319 0.0649687ZM7.0006 3.41797C6.53013 3.41797 6.06425 3.51064 5.62959 3.69068C5.19492 3.87072 4.79998 4.13462 4.4673 4.4673C4.13462 4.79998 3.87072 5.19492 3.69068 5.62959C3.51064 6.06425 3.41797 6.53013 3.41797 7.0006C3.41797 7.47108 3.51064 7.93695 3.69068 8.37162C3.87072 8.80628 4.13462 9.20123 4.4673 9.53391C4.79998 9.86659 5.19492 10.1305 5.62959 10.3105C6.06425 10.4906 6.53013 10.5832 7.0006 10.5832C7.95078 10.5832 8.86203 10.2058 9.53391 9.53391C10.2058 8.86203 10.5832 7.95078 10.5832 7.0006C10.5832 6.05043 10.2058 5.13917 9.53391 4.4673C8.86203 3.79542 7.95078 3.41797 7.0006 3.41797ZM7.0006 9.32623C6.38381 9.32623 5.79227 9.08121 5.35613 8.64507C4.91999 8.20893 4.67497 7.6174 4.67497 7.0006C4.67497 6.38381 4.91999 5.79227 5.35613 5.35613C5.79227 4.91999 6.38381 4.67497 7.0006 4.67497C7.6174 4.67497 8.20893 4.91999 8.64507 5.35613C9.08121 5.79227 9.32623 6.38381 9.32623 7.0006C9.32623 7.6174 9.08121 8.20893 8.64507 8.64507C8.20893 9.08121 7.6174 9.32623 7.0006 9.32623ZM11.5638 3.27538C11.5638 3.73777 11.1889 4.11261 10.7266 4.11261C10.2642 4.11261 9.88932 3.73777 9.88932 3.27538C9.88932 2.81299 10.2642 2.43815 10.7266 2.43815C11.1889 2.43815 11.5638 2.81299 11.5638 3.27538Z" fill="#222222"/>
</svg>
